<svg xmlns="http://www.w3.org/2000/svg" viewBox="0 0 512 512" width="512" height="512">
  <defs>
    <linearGradient id="g" x1="0" y1="0" x2="1" y2="1">
      <stop offset="0%" stop-color="#D4AC3C"/>
      <stop offset="100%" stop-color="#A67E1E"/>
    </linearGradient>
  </defs>
  <rect width="512" height="512" rx="96" fill="#FDFBF7"/>
  <!-- Стилизованный зуб — минималистичная иконка -->
  <g transform="translate(256,240)" fill="none" stroke="url(#g)" stroke-width="22" stroke-linecap="round" stroke-linejoin="round">
    <!-- Коронка зуба -->
    <path d="M-80,-100 C-80,-160 -50,-190 0,-190 C50,-190 80,-160 80,-100 C80,-60 60,-30 50,-10 C40,10 35,50 30,100 C28,120 15,130 0,130 C-15,130 -28,120 -30,100 C-35,50 -40,10 -50,-10 C-60,-30 -80,-60 -80,-100Z"/>
    <!-- Центральная линия (фиссура) -->
    <path d="M-25,-130 C-10,-110 10,-110 25,-130" stroke-width="16"/>
  </g>
  <!-- Акцентная точка -->
  <circle cx="256" cy="440" r="10" fill="url(#g)"/>
</svg>
